PathFileType	4	(X/Y/Z)	output.trc
DataRate	CameraRate	NumFrames	NumMarkers	Units	OrigDataRate	OrigDataStartFrame	OrigNumFrames
100	100	9	23	m	100	3740	5983
Frame#	Time	C7			T8			EL			EM			US			RS			AA			Fore_Clus_1			Fore_Clus_2			Fore_Clus_3			Fore_Clus_4			Hum_Clus_1			Hum_Clus_2			Hum_Clus_3			Hum_Clus_4			Thor_Clus_1			Thor_Clus_2			Thor_Clus_3			Thor_Clus_4			IJ			PX			GH			Thor_Clus_5		
		X1	Y1	Z1	X2	Y2	Z2	X3	Y3	Z3	X4	Y4	Z4	X5	Y5	Z5	X6	Y6	Z6	X7	Y7	Z7	X8	Y8	Z8	X9	Y9	Z9	X10	Y10	Z10	X11	Y11	Z11	X12	Y12	Z12	X13	Y13	Z13	X14	Y14	Z14	X15	Y15	Z15	X16	Y16	Z16	X17	Y17	Z17	X18	Y18	Z18	X19	Y19	Z19	X20	Y20	Z20	X21	Y21	Z21	X22	Y22	Z22	X23	Y23	Z23
3739	37.390000	-0.033363	1.583061	-0.049275	-0.059260	1.349653	-0.110898	-0.195554	1.166508	0.111196	-0.171621	1.162292	0.048828	-0.195523	0.908170	0.116569	-0.147739	0.907801	0.147125	-0.195400	1.501461	0.079778	-0.214954	0.956467	0.148893	-0.210771	0.902765	0.153923	-0.186955	0.905815	0.168851	-0.176573	0.962371	0.172491	-0.185165	1.272290	0.165087	-0.230579	1.277316	0.125904	-0.239083	1.340346	0.127462	-0.190286	1.346062	0.159877	0.091545	1.442154	0.083942	0.046379	1.387583	0.129408	0.052269	1.439402	0.104181	0.103126	1.391493	0.099407	0.026189	1.483865	0.043003	0.050433	1.299785	0.086115	-0.159652	1.477370	0.082478	0.041253	1.410270	0.122086
3740	37.400000	-0.033452	1.583040	-0.049279	-0.059318	1.349626	-0.110895	-0.195581	1.166499	0.111188	-0.171634	1.162291	0.048825	-0.195594	0.908163	0.116551	-0.147819	0.907789	0.147120	-0.195478	1.501421	0.079777	-0.215035	0.956445	0.148878	-0.210863	0.902750	0.153909	-0.187055	0.905795	0.168855	-0.176660	0.962344	0.172478	-0.185219	1.272250	0.165091	-0.230644	1.277284	0.125906	-0.239130	1.340315	0.127469	-0.190337	1.346021	0.159890	0.091466	1.442131	0.083948	0.046316	1.387568	0.129406	0.052188	1.439376	0.104169	0.103067	1.391490	0.099413	0.026113	1.483854	0.043002	0.050381	1.299778	0.086119	-0.159697	1.477367	0.082501	0.041167	1.410263	0.122100
3741	37.410000	-0.033543	1.583019	-0.049281	-0.059376	1.349600	-0.110891	-0.195606	1.166494	0.111178	-0.171636	1.162291	0.048824	-0.195677	0.908160	0.116526	-0.147911	0.907777	0.147110	-0.195557	1.501380	0.079777	-0.215123	0.956431	0.148847	-0.210948	0.902727	0.153875	-0.187134	0.905766	0.168829	-0.176754	0.962327	0.172469	-0.185282	1.272238	0.165084	-0.230710	1.277271	0.125896	-0.239188	1.340295	0.127454	-0.190402	1.346017	0.159872	0.091403	1.442131	0.083968	0.046241	1.387561	0.129404	0.052118	1.439383	0.104187	0.102999	1.391478	0.099417	0.026036	1.483844	0.043003	0.050331	1.299773	0.086124	-0.159745	1.477367	0.082519	0.041098	1.410233	0.122095
3742	37.420000	-0.033631	1.583000	-0.049283	-0.059428	1.349576	-0.110888	-0.195631	1.166491	0.111170	-0.171628	1.162290	0.048828	-0.195778	0.908156	0.116497	-0.148020	0.907761	0.147093	-0.195636	1.501341	0.079773	-0.215203	0.956410	0.148822	-0.211060	0.902704	0.153847	-0.187241	0.905731	0.168811	-0.176868	0.962298	0.172457	-0.185387	1.272212	0.165062	-0.230804	1.277243	0.125850	-0.239273	1.340274	0.127419	-0.190512	1.345994	0.159879	0.091331	1.442121	0.083966	0.046178	1.387541	0.129414	0.052035	1.439360	0.104201	0.102947	1.391469	0.099420	0.025961	1.483835	0.043004	0.050281	1.299769	0.086130	-0.159795	1.477368	0.082526	0.041030	1.410219	0.122090
3743	37.430000	-0.033716	1.582984	-0.049282	-0.059480	1.349556	-0.110885	-0.195658	1.166490	0.111162	-0.171614	1.162289	0.048836	-0.195895	0.908154	0.116462	-0.148144	0.907743	0.147069	-0.195714	1.501304	0.079771	-0.215287	0.956405	0.148781	-0.211157	0.902693	0.153804	-0.187346	0.905722	0.168787	-0.176953	0.962264	0.172422	-0.185508	1.272207	0.165051	-0.230889	1.277241	0.125807	-0.239358	1.340260	0.127363	-0.190623	1.346021	0.159839	0.091263	1.442101	0.083983	0.046109	1.387529	0.129415	0.051975	1.439355	0.104202	0.102877	1.391459	0.099437	0.025887	1.483829	0.043008	0.050231	1.299766	0.086137	-0.159850	1.477371	0.082523	0.040974	1.410201	0.122101
3744	37.440000	-0.033796	1.582973	-0.049278	-0.059530	1.349542	-0.110883	-0.195689	1.166489	0.111156	-0.171599	1.162285	0.048848	-0.196028	0.908151	0.116422	-0.148283	0.907721	0.147038	-0.195789	1.501273	0.079769	-0.215381	0.956409	0.148751	-0.211281	0.902693	0.153781	-0.187456	0.905704	0.168767	-0.177074	0.962246	0.172390	-0.185621	1.272204	0.165040	-0.230966	1.277239	0.125758	-0.239454	1.340248	0.127301	-0.190759	1.346061	0.159783	0.091207	1.442095	0.083995	0.046046	1.387517	0.129416	0.051900	1.439341	0.104217	0.102823	1.391444	0.099455	0.025815	1.483824	0.043014	0.050180	1.299764	0.086143	-0.159908	1.477372	0.082508	0.040909	1.410187	0.122111
3745	37.450000	-0.033867	1.582966	-0.049272	-0.059577	1.349534	-0.110883	-0.195727	1.166488	0.111154	-0.171587	1.162276	0.048865	-0.196178	0.908145	0.116381	-0.148434	0.907695	0.146998	-0.195859	1.501249	0.079765	-0.215480	0.956403	0.148730	-0.211397	0.902701	0.153756	-0.187578	0.905724	0.168763	-0.177162	0.962227	0.172379	-0.185720	1.272227	0.165038	-0.231039	1.277250	0.125707	-0.239514	1.340260	0.127236	-0.190843	1.346079	0.159768	0.091131	1.442073	0.084017	0.045969	1.387509	0.129430	0.051836	1.439349	0.104236	0.102765	1.391443	0.099466	0.025748	1.483821	0.043021	0.050127	1.299762	0.086147	-0.159967	1.477371	0.082480	0.040850	1.410188	0.122129
3746	37.460000	-0.033931	1.582965	-0.049261	-0.059624	1.349534	-0.110883	-0.195775	1.166487	0.111153	-0.171585	1.162264	0.048884	-0.196338	0.908140	0.116338	-0.148593	0.907667	0.146953	-0.195925	1.501233	0.079764	-0.215635	0.956589	0.148662	-0.211529	0.902708	0.153734	-0.187682	0.905691	0.168719	-0.177335	0.962354	0.172227	-0.185796	1.272253	0.165040	-0.231102	1.277251	0.125658	-0.239574	1.340268	0.127177	-0.190930	1.346103	0.159753	0.091100	1.442181	0.083948	0.045900	1.387501	0.129446	0.051757	1.439324	0.104233	0.102711	1.391445	0.099489	0.025686	1.483819	0.043031	0.050073	1.299760	0.086151	-0.160026	1.477367	0.082440	0.040787	1.410178	0.122139
3747	37.470000	-0.033981	1.582968	-0.049249	-0.059665	1.349540	-0.110887	-0.195835	1.166482	0.111156	-0.171598	1.162244	0.048907	-0.196511	0.908129	0.116299	-0.148759	0.907634	0.146902	-0.195983	1.501226	0.079758	-0.215722	0.956468	0.148676	-0.211656	0.902730	0.153710	-0.187807	0.905712	0.168677	-0.177360	0.962247	0.172273	-0.185849	1.272282	0.165028	-0.231139	1.277278	0.125625	-0.239610	1.340294	0.127120	-0.190981	1.346134	0.159712	0.091037	1.442181	0.083963	0.045830	1.387503	0.129455	0.051692	1.439343	0.104264	0.102648	1.391444	0.099491	0.025630	1.483818	0.043042	0.050018	1.299757	0.086153	-0.160079	1.477357	0.082386	0.040724	1.410188	0.122146
